<svg xmlns="http://www.w3.org/2000/svg" viewBox="0 0 940 560" font-family="Segoe UI,Arial,sans-serif">
<rect width="940" height="560" fill="#eef3f8"/>
<text x="28" y="40" font-family="Segoe UI,Arial,sans-serif" font-size="20" fill="#0f2c4c" text-anchor="start" font-weight="700">Esquematico — Fechadura IoT (ESP32 + sensores)</text>
<text x="28" y="62" font-family="Segoe UI,Arial,sans-serif" font-size="13" fill="#7e8fa6" text-anchor="start" >Seminario G6 · Seguranca em IoT — versao fisica</text>
<rect x="300" y="110" width="180" height="380" rx="10" fill="#0f2c4c" stroke="#0f2c4c" stroke-width="2"/>
<text x="390.0" y="140" font-family="Segoe UI,Arial,sans-serif" font-size="18" fill="#ffffff" text-anchor="middle" font-weight="700">ESP32</text>
<text x="390.0" y="160" font-family="Segoe UI,Arial,sans-serif" font-size="12" fill="#9fb4ce" text-anchor="start" font-weight="700">DevKit v1</text>
<rect x="474" y="186" width="12" height="18" fill="#38bdf8"/>
<text x="466" y="199" font-family="Segoe UI,Arial,sans-serif" font-size="12" fill="#dbe8f7" text-anchor="start" font-weight="700">VIN/5V</text>
<rect x="474" y="232" width="12" height="18" fill="#38bdf8"/>
<text x="466" y="245" font-family="Segoe UI,Arial,sans-serif" font-size="12" fill="#dbe8f7" text-anchor="start" font-weight="700">GPIO26</text>
<rect x="474" y="278" width="12" height="18" fill="#38bdf8"/>
<text x="466" y="291" font-family="Segoe UI,Arial,sans-serif" font-size="12" fill="#dbe8f7" text-anchor="start" font-weight="700">GPIO25</text>
<rect x="474" y="324" width="12" height="18" fill="#38bdf8"/>
<text x="466" y="337" font-family="Segoe UI,Arial,sans-serif" font-size="12" fill="#dbe8f7" text-anchor="start" font-weight="700">GPIO27</text>
<rect x="474" y="370" width="12" height="18" fill="#38bdf8"/>
<text x="466" y="383" font-family="Segoe UI,Arial,sans-serif" font-size="12" fill="#dbe8f7" text-anchor="start" font-weight="700">GPIO33</text>
<rect x="474" y="416" width="12" height="18" fill="#38bdf8"/>
<text x="466" y="429" font-family="Segoe UI,Arial,sans-serif" font-size="12" fill="#dbe8f7" text-anchor="start" font-weight="700">GPIO4</text>
<rect x="294" y="186" width="12" height="18" fill="#38bdf8"/>
<text x="314" y="199" font-family="Segoe UI,Arial,sans-serif" font-size="12" fill="#dbe8f7" text-anchor="start" >3V3</text>
<rect x="294" y="232" width="12" height="18" fill="#38bdf8"/>
<text x="314" y="245" font-family="Segoe UI,Arial,sans-serif" font-size="12" fill="#dbe8f7" text-anchor="start" >GND</text>
<rect x="294" y="278" width="12" height="18" fill="#38bdf8"/>
<text x="314" y="291" font-family="Segoe UI,Arial,sans-serif" font-size="12" fill="#dbe8f7" text-anchor="start" >GPIO34</text>
<rect x="640" y="150" width="270" height="52" rx="8" fill="#ffffff" stroke="#c9d6e5" stroke-width="1.5"/>
<text x="652" y="172" font-family="Segoe UI,Arial,sans-serif" font-size="13" fill="#0f2c4c" text-anchor="start" font-weight="700">Modulo Rele (trava)</text>
<text x="652" y="190" font-family="Segoe UI,Arial,sans-serif" font-size="10" fill="#7e8fa6" text-anchor="start" >IN &#8592; GPIO26 · VCC 5V · GND</text>
<line x1="486" y1="241" x2="610" y2="241" stroke="#b4442e" stroke-width="2" />
<line x1="610" y1="241" x2="610" y2="176" stroke="#b4442e" stroke-width="2" />
<line x1="610" y1="176" x2="640" y2="176" stroke="#b4442e" stroke-width="2" />
<circle cx="486" cy="241" r="3.5" fill="#b4442e"/>
<rect x="640" y="215" width="270" height="52" rx="8" fill="#ffffff" stroke="#c9d6e5" stroke-width="1.5"/>
<text x="652" y="237" font-family="Segoe UI,Arial,sans-serif" font-size="13" fill="#2e7d5b" text-anchor="start" font-weight="700">LED verde</text>
<text x="652" y="255" font-family="Segoe UI,Arial,sans-serif" font-size="10" fill="#7e8fa6" text-anchor="start" >GPIO25 &#8594; [330] -> GND</text>
<line x1="486" y1="287" x2="610" y2="287" stroke="#2e7d5b" stroke-width="2" />
<line x1="610" y1="287" x2="610" y2="241" stroke="#2e7d5b" stroke-width="2" />
<line x1="610" y1="241" x2="640" y2="241" stroke="#2e7d5b" stroke-width="2" />
<circle cx="486" cy="287" r="3.5" fill="#2e7d5b"/>
<rect x="640" y="280" width="270" height="52" rx="8" fill="#ffffff" stroke="#c9d6e5" stroke-width="1.5"/>
<text x="652" y="302" font-family="Segoe UI,Arial,sans-serif" font-size="13" fill="#0f2c4c" text-anchor="start" font-weight="700">Buzzer ativo 5V</text>
<text x="652" y="320" font-family="Segoe UI,Arial,sans-serif" font-size="10" fill="#7e8fa6" text-anchor="start" >+ &#8592; GPIO27 · - GND</text>
<line x1="486" y1="333" x2="610" y2="333" stroke="#4a6fa5" stroke-width="2" />
<line x1="610" y1="333" x2="610" y2="306" stroke="#4a6fa5" stroke-width="2" />
<line x1="610" y1="306" x2="640" y2="306" stroke="#4a6fa5" stroke-width="2" />
<circle cx="486" cy="333" r="3.5" fill="#4a6fa5"/>
<rect x="640" y="345" width="270" height="52" rx="8" fill="#ffffff" stroke="#c9d6e5" stroke-width="1.5"/>
<text x="652" y="367" font-family="Segoe UI,Arial,sans-serif" font-size="13" fill="#b4442e" text-anchor="start" font-weight="700">LED vermelho (opc.)</text>
<text x="652" y="385" font-family="Segoe UI,Arial,sans-serif" font-size="10" fill="#7e8fa6" text-anchor="start" >GPIO33 &#8594; [330] -> GND</text>
<line x1="486" y1="379" x2="610" y2="379" stroke="#b4442e" stroke-width="2" />
<line x1="610" y1="379" x2="610" y2="371" stroke="#b4442e" stroke-width="2" />
<line x1="610" y1="371" x2="640" y2="371" stroke="#b4442e" stroke-width="2" />
<circle cx="486" cy="379" r="3.5" fill="#b4442e"/>
<rect x="640" y="410" width="270" height="52" rx="8" fill="#ffffff" stroke="#c9d6e5" stroke-width="1.5"/>
<text x="652" y="432" font-family="Segoe UI,Arial,sans-serif" font-size="13" fill="#0f2c4c" text-anchor="start" font-weight="700">DHT22 (temp+umid)</text>
<text x="652" y="450" font-family="Segoe UI,Arial,sans-serif" font-size="10" fill="#7e8fa6" text-anchor="start" >DATA &#8594; GPIO4 · VCC 3V3 · GND</text>
<line x1="486" y1="425" x2="610" y2="425" stroke="#4a6fa5" stroke-width="2" />
<line x1="610" y1="425" x2="610" y2="436" stroke="#4a6fa5" stroke-width="2" />
<line x1="610" y1="436" x2="640" y2="436" stroke="#4a6fa5" stroke-width="2" />
<circle cx="486" cy="425" r="3.5" fill="#4a6fa5"/>
<rect x="40" y="300" width="210" height="200" rx="8" fill="#ffffff" stroke="#c9d6e5" stroke-width="1.5"/>
<text x="54" y="324" font-family="Segoe UI,Arial,sans-serif" font-size="13" fill="#0f2c4c" text-anchor="start" font-weight="700">Divisor NTC 10k</text>
<text x="95" y="350" font-family="Segoe UI,Arial,sans-serif" font-size="11" fill="#4a6fa5" text-anchor="middle" font-weight="700">3V3</text>
<line x1="95" y1="356" x2="95" y2="370" stroke="#4a6fa5" stroke-width="2" />
<rect x="79" y="370" width="32" height="34" fill="none" stroke="#0f2c4c" stroke-width="1.5"/>
<text x="95" y="392" font-family="Segoe UI,Arial,sans-serif" font-size="10" fill="#0f2c4c" text-anchor="middle" >NTC</text>
<line x1="95" y1="404" x2="95" y2="420" stroke="#4a6fa5" stroke-width="2" />
<circle cx="95" cy="420" r="3.5" fill="#2563eb"/>
<text x="119" y="424" font-family="Segoe UI,Arial,sans-serif" font-size="11" fill="#2563eb" text-anchor="start" font-weight="700">&#8594; GPIO34</text>
<rect x="79" y="420" width="32" height="34" fill="none" stroke="#0f2c4c" stroke-width="1.5"/>
<text x="95" y="442" font-family="Segoe UI,Arial,sans-serif" font-size="10" fill="#0f2c4c" text-anchor="middle" >10k</text>
<line x1="95" y1="454" x2="95" y2="470" stroke="#4a6fa5" stroke-width="2" />
<text x="95" y="486" font-family="Segoe UI,Arial,sans-serif" font-size="11" fill="#4a6fa5" text-anchor="middle" font-weight="700">GND</text>
<line x1="111" y1="420" x2="270" y2="420" stroke="#2563eb" stroke-width="2" />
<line x1="270" y1="420" x2="270" y2="287" stroke="#2563eb" stroke-width="2" />
<line x1="270" y1="287" x2="294" y2="287" stroke="#2563eb" stroke-width="2" />
<text x="230" y="199" font-family="Segoe UI,Arial,sans-serif" font-size="10" fill="#7e8fa6" text-anchor="end" >&#8594; 3V3 sensores</text>
<text x="230" y="245" font-family="Segoe UI,Arial,sans-serif" font-size="10" fill="#7e8fa6" text-anchor="end" >&#8594; GND comum</text>
<text x="28" y="540" font-family="Segoe UI,Arial,sans-serif" font-size="11" fill="#7e8fa6" text-anchor="start" >Cores: azul=leitura ADC (NTC) · verde=LED verde · vermelho=rele/alerta · cinza=alimentacao/sinal</text>
</svg>