<svg xmlns="http://www.w3.org/2000/svg" viewBox="0 0 64 64">
  <rect width="64" height="64" rx="14" fill="#0f2c4c"/>
  <rect x="8" y="8" width="48" height="48" rx="11" fill="url(#g)"/>
  <defs><linearGradient id="g" x1="0" y1="0" x2="1" y2="1">
    <stop offset="0" stop-color="#38bdf8"/><stop offset="1" stop-color="#4a6fa5"/>
  </linearGradient></defs>
  <path d="M26 30v-4a6 6 0 0 1 12 0v4h2a2 2 0 0 1 2 2v10a2 2 0 0 1-2 2H24a2 2 0 0 1-2-2V32a2 2 0 0 1 2-2h2zm4 0h4v-4a2 2 0 0 0-4 0v4z" fill="#06203a"/>
</svg>
